<?xml version="1.0" encoding="UTF-8" standalone="no"?>
<svg
   xmlns:dc="http://purl.org/dc/elements/1.1/"
   xmlns:cc="http://creativecommons.org/ns#"
   xmlns:rdf="http://www.w3.org/1999/02/22-rdf-syntax-ns#"
   xmlns:svg="http://www.w3.org/2000/svg"
   xmlns="http://www.w3.org/2000/svg"
   xmlns:sodipodi="http://sodipodi.sourceforge.net/DTD/sodipodi-0.dtd"
   xmlns:inkscape="http://www.inkscape.org/namespaces/inkscape"
   version="1.1"
   height="118.19988"
   width="523.59625"
   id="svg2"
   inkscape:version="0.48.4 r9939"
   sodipodi:docname="JQuery_logo.svg">
  <metadata
     id="metadata140">
    <rdf:RDF>
      <cc:Work
         rdf:about="">
        <dc:format>image/svg+xml</dc:format>
        <dc:type
           rdf:resource="http://purl.org/dc/dcmitype/StillImage" />
      </cc:Work>
    </rdf:RDF>
  </metadata>
  <defs
     id="defs138" />
  <sodipodi:namedview
     pagecolor="#ffffff"
     bordercolor="#666666"
     borderopacity="1"
     objecttolerance="10"
     gridtolerance="10"
     guidetolerance="10"
     inkscape:pageopacity="0"
     inkscape:pageshadow="2"
     inkscape:window-width="1600"
     inkscape:window-height="838"
     id="namedview136"
     showgrid="false"
     inkscape:zoom="0.67037182"
     inkscape:cx="613.74415"
     inkscape:cy="121.28118"
     inkscape:window-x="-8"
     inkscape:window-y="32"
     inkscape:window-maximized="1"
     inkscape:current-layer="svg2"
     fit-margin-top="0"
     fit-margin-left="0"
     fit-margin-right="0"
     fit-margin-bottom="0" />
  <path
     d="m 223.9,46.171 0.001,-0.005 c 0,0 -3.352,11.88 -3.352,11.88 0,0 3.3508,-11.875 3.3508,-11.875 z"
     id="path4"
     inkscape:connector-curvature="0"
     style="fill:#131b28;fill-rule:nonzero" />
  <path
     d="m 241.14,71.962 c 0,0 -3.6938,-0.022 -3.6938,-0.022 0,0 3.6938,0.022 3.6938,0.022 z"
     id="path6"
     inkscape:connector-curvature="0"
     style="fill:#131b28;fill-rule:nonzero" />
  <path
     d="m 240.19,89.703 h 0.004 c 0,0 -22.131,0.0806 -22.131,0.0806 0,0 22.128,-0.0806 22.128,-0.0806 z"
     id="path8"
     inkscape:connector-curvature="0"
     style="fill:#131b28;fill-rule:nonzero" />
  <path
     d="m 244.83,71.984 c 0,0 -3.6951,-0.022 -3.6951,-0.022 0,0 3.6951,0.022 3.6951,0.022 z"
     id="path10"
     inkscape:connector-curvature="0"
     style="fill:#131b28;fill-rule:nonzero" />
  <path
     d="m 242.13,88.195 c 0,0 3.855,-14.702 3.855,-14.702 0,0 -3.855,14.705 -3.855,14.705 v -0.002 z"
     id="path12"
     inkscape:connector-curvature="0"
     style="fill:#131b28;fill-rule:nonzero" />
  <path
     d="m 323.61,20.49 c 0,0 -7.1814,33.76 -7.1814,33.76 0,0 7.1814,-33.76 7.1814,-33.76 z"
     id="path14"
     inkscape:connector-curvature="0"
     style="fill:#131b28;fill-rule:nonzero" />
  <path
     d="m 305.15,20.49 c 0,0 -5.4517,25.22 -5.4517,25.22 0,0 5.4517,-25.222 5.4517,-25.222 v 0.002 z"
     id="path16"
     inkscape:connector-curvature="0"
     style="fill:#131b28;fill-rule:nonzero" />
  <path
     d="m 322.38,18.971 h -15.356 c -0.85205,0 -1.698,0.68359 -1.8799,1.5161 0,0 -5.4516,25.222 -5.4516,25.222 0,0 -5.4517,25.222 -5.4517,25.222 -0.18066,0.83251 -1.0254,1.5137 -1.8774,1.5137 h -9.3176 -1.5515 c -10.753,0 -9.5093,-7.4365 -7.3071,-17.627 0.022,-0.1025 0.044,-0.20263 0.0659,-0.30761 0,0 0.24169,-1.2842 0.24169,-1.2842 0.0146,-0.083 0.0317,-0.16603 0.0451,-0.2417 0,0 0.49072,-2.6148 0.49072,-2.6148 0,0 0.52612,-2.8027 0.52612,-2.8027 0.15992,-0.84473 0.40283,-2.0801 0.56153,-2.8564 0,0 2.478,-12.109 2.478,-12.109 0,0 2.4805,-12.109 2.4805,-12.109 0.1709,-0.83496 -0.38819,-1.521 -1.2402,-1.521 h -15.762 c -0.85206,0 -1.6956,0.68604 -1.8701,1.5186 0,0 -3.3887,16.079 -3.3887,16.079 0,0 -3.3887,16.077 -3.3887,16.077 -0.003,0.007 -0.004,0.0171 -0.005,0.0244 0,0 -0.31494,1.4942 -0.31494,1.4942 -3.9038,17.822 -2.8686,34.817 18.347,35.349 0.3467,0.01 0.61525,0.0125 0.61525,0.0125 h 33.302 c 0.85206,0 1.6956,-0.6836 1.8738,-1.5186 0,0 7.1814,-33.757 7.1814,-33.757 0,0 7.1814,-33.76 7.1814,-33.76 0.17701,-0.83497 -0.37598,-1.5186 -1.228,-1.5186 z"
     id="path18"
     inkscape:connector-curvature="0"
     style="fill:#131b28;fill-rule:nonzero" />
  <path
     d="m 383.64,72.621 c 0.85327,0 1.4111,0.6836 1.2402,1.5186 0,0 -1.4917,7.2876 -1.4917,7.2876"
     id="path20"
     inkscape:connector-curvature="0"
     style="fill:#131b28;fill-rule:nonzero" />
  <path
     d="m 381.9,88.719 c 0,0 1.4905,-7.2925 1.4905,-7.2925 0,0 -1.4917,7.2949 -1.4917,7.2949 0,-0.002 9.9e-4,-0.002 9.9e-4,-0.002 z"
     id="path22"
     inkscape:connector-curvature="0"
     style="fill:#131b28;fill-rule:nonzero" />
  <path
     d="m 380.03,90.253 c 0.002,0 0.005,-0.002 0.007,-0.002 -4.519,0.0366 -18.099,0.13916 -28.306,0.13916 12.422,0 28.298,-0.13672 28.298,-0.13672 z"
     id="path24"
     inkscape:connector-curvature="0"
     style="fill:#131b28;fill-rule:nonzero" />
  <path
     d="m 342.57,63.234 c -0.0125,-0.79835 0.896,-2.1729 1.7493,-2.1729 0,0 -1.9177,-0.0317 -1.9177,-0.0317 -0.86426,8.6914 0.16845,2.2046 0.16845,2.2046 z"
     id="path26"
     inkscape:connector-curvature="0"
     style="fill:#131b28;fill-rule:nonzero" />
  <path
     d="m 353.13,90.387 c -0.0976,0 -0.19775,0 -0.29542,0.002 0.0976,-0.002 0.19777,-0.002 0.29542,-0.002 z"
     id="path28"
     inkscape:connector-curvature="0"
     style="fill:#131b28;fill-rule:nonzero" />
  <path
     d="m 383.64,72.621 c 0.85327,0 1.4111,0.6836 1.2402,1.5186 0,0 -1.4917,7.2876 -1.4917,7.2876 0,0 -0.24293,1.189 -0.24293,1.189"
     id="path30"
     inkscape:connector-curvature="0"
     style="fill:#131b28;fill-rule:nonzero" />
  <path
     d="M 360.4,90.37 H 360.3377 360.4 z"
     id="path32"
     inkscape:connector-curvature="0"
     style="fill:#131b28;fill-rule:nonzero" />
  <path
     d="M 356.63,90.382 H 356.41148 356.63 z"
     id="path34"
     inkscape:connector-curvature="0"
     style="fill:#131b28;fill-rule:nonzero" />
  <path
     d="m 355.48,90.385 c -0.12201,0 -0.2417,0 -0.36134,0.002 0.11963,-0.002 0.23927,-0.002 0.36134,-0.002 z"
     id="path36"
     inkscape:connector-curvature="0"
     style="fill:#131b28;fill-rule:nonzero" />
  <path
     d="M 354.31,90.387 H 353.99263 354.31 z"
     id="path38"
     inkscape:connector-curvature="0"
     style="fill:#131b28;fill-rule:nonzero" />
  <path
     d="m 356.41,90.382 c -0.31127,0 -0.62255,0.002 -0.93016,0.002 0.30761,0 0.61889,-0.002 0.93016,-0.002 z"
     id="path40"
     inkscape:connector-curvature="0"
     style="fill:#131b28;fill-rule:nonzero" />
  <path
     d="m 360.34,90.37 c -1.2427,0.005 -2.4829,0.01 -3.7048,0.0125 1.2219,-0.002 2.4634,-0.007 3.7048,-0.0125 z"
     id="path42"
     inkscape:connector-curvature="0"
     style="fill:#131b28;fill-rule:nonzero" />
  <path
     d="m 380.04,90.25 h 10e-4 c -3.3118,0.0269 -11.49,0.0879 -19.646,0.11963 8.1518,-0.0292 16.332,-0.0927 19.645,-0.11963 z"
     id="path44"
     inkscape:connector-curvature="0"
     style="fill:#131b28;fill-rule:nonzero" />
  <path
     d="m 381.9,88.722 c 0,0 1.2488,-6.106 1.2488,-6.106 0,0 -1.25,6.1108 -1.25,6.1108 0,-0.002 0.001,-0.002 0.001,-0.005 z"
     id="path46"
     inkscape:connector-curvature="0"
     style="fill:#131b28;fill-rule:nonzero" />
  <path
     d="M 355.12,90.387 H 354.30946 355.12 z"
     id="path48"
     inkscape:connector-curvature="0"
     style="fill:#131b28;fill-rule:nonzero" />
  <path
     d="m 352.83,90.389 h -1.0962 1.0962 z"
     id="path50"
     inkscape:connector-curvature="0"
     style="fill:#131b28;fill-rule:nonzero" />
  <path
     d="M 353.99,90.387 H 353.12574 353.99 z"
     id="path52"
     inkscape:connector-curvature="0"
     style="fill:#131b28;fill-rule:nonzero" />
  <path
     d="m 129.36,63.417 c 0,0 2.3852,-10.574 2.3852,-10.574 0,0 -2.727,12.087 -2.727,12.087 0,0 -2.6172,12.312 -2.6172,12.312 0,0 2.2937,-10.793 2.2937,-10.793 0.177,-0.83497 0.4773,-2.1997 0.66529,-3.0322 z"
     id="path54"
     inkscape:connector-curvature="0"
     style="fill:#131b28;fill-rule:nonzero" />
  <path
     d="m 157.91,18.793 h -16.864 c -0.85326,0 -1.7041,0.68115 -1.8945,1.5112 0,0 -1.5991,7.0581 -1.5991,7.0581 0,0 -1.5991,7.0606 -1.5991,7.0606 -0.18799,0.83008 0.35523,1.5112 1.2085,1.5112 h 16.995 c 0.85205,0 1.6992,-0.68115 1.8823,-1.5137 0,0 1.5454,-7.0581 1.5454,-7.0581 0,0 1.5454,-7.0532 1.5454,-7.0532 v -0.002 c 0.18189,-0.83253 -0.36621,-1.5137 -1.2195,-1.5137 z"
     id="path56"
     inkscape:connector-curvature="0"
     style="fill:#131b28;fill-rule:nonzero" />
  <path
     d="M 154.24,42.272 V 42.27 c 0,0 -4.9463,22.883 -4.9463,22.883 0,0 4.9463,-22.881 4.9463,-22.881 z"
     id="path58"
     inkscape:connector-curvature="0"
     style="fill:#131b28;fill-rule:nonzero" />
  <path
     d="m 105.25,118.09 c 0,0 8.501,0.10988 13.905,0.10988 -4.1052,0 -10.885,-0.0756 -13.912,-0.11225 0.003,0 0.005,0.002 0.008,0.002 z"
     id="path60"
     inkscape:connector-curvature="0"
     style="fill:#131b28;fill-rule:nonzero" />
  <path
     d="m 134.13,42.269 c 0,0 -2.3877,10.574 -2.3877,10.574 0,0 2.3877,-10.574 2.3877,-10.574 z"
     id="path62"
     inkscape:connector-curvature="0"
     style="fill:#131b28;fill-rule:nonzero" />
  <path
     d="m 153.02,40.756 h -16.997 c -0.85205,0 -1.7041,0.68117 -1.8921,1.5137 0,0 -2.3877,10.574 -2.3877,10.574 0,0 -2.3852,10.574 -2.3852,10.574 -0.18799,0.83253 -0.48829,2.1973 -0.66529,3.0322 0,0 -2.2937,10.793 -2.2937,10.793 0,0 -2.2925,10.793 -2.2925,10.793 -0.17822,0.83252 -0.54443,2.1777 -0.81787,2.9858 0,0 -3.175,9.4482 -8.5132,9.3408 -0.22705,-0.005 -0.448,-0.007 -0.6665,-0.0125 -2.5867,-0.0489 -4.6191,-0.0855 -4.6191,-0.0855 h -0.004 c -0.85083,-0.0125 -1.7066,0.65185 -1.9055,1.4795 0,0 -1.7627,7.4097 -1.7627,7.4097 0,0 -1.7603,7.4072 -1.7603,7.4072 -0.19775,0.82762 0.33692,1.5112 1.1841,1.5259 3.0274,0.0366 9.8071,0.11225 13.912,0.11225 13.334,0 20.363,-7.3877 24.869,-28.647 0,0 5.2734,-24.399 5.2734,-24.399 0,0 4.9463,-22.883 4.9463,-22.883 0.17945,-0.83251 -0.3711,-1.5137 -1.2232,-1.5137 z"
     id="path64"
     inkscape:connector-curvature="0"
     style="fill:#131b28;fill-rule:nonzero" />
  <path
     d="m 394.47,89.525 c -0.85205,0 -1.405,-0.6836 -1.2256,-1.5186 0,0 12.786,-59.89 12.786,-59.89"
     id="path66"
     inkscape:connector-curvature="0"
     style="fill:#131b28;fill-rule:nonzero" />
  <path
     d="m 412.24,88.004 c 0,0 5.1709,-25.562 5.1709,-25.562 0,0 -5.1709,25.562 -5.1709,25.562 z"
     id="path68"
     inkscape:connector-curvature="0"
     style="fill:#131b28;fill-rule:nonzero" />
  <path
     d="m 393.43,88.766 c -0.10375,-0.41749 -0.0428,-1.4404 0.13793,-2.2754 0,0 6.0681,-28.428 6.0681,-28.428 0,0 -6.3928,29.944 -6.3928,29.944 -0.17944,0.83495 0.37354,1.5186 1.2256,1.5186 h 1.5528 c -0.85328,0 -2.489,-0.3418 -2.5916,-0.75927 z"
     id="path70"
     inkscape:connector-curvature="0"
     style="fill:#131b28;fill-rule:nonzero" />
  <path
     d="m 411.23,89.183 c -0.46388,0.18799 -1.543,0.3418 -2.3962,0.3418 h 1.5527 c 0.85205,0 1.6894,-0.6836 1.8579,-1.521 0,0 0.30761,-1.5186 0.30761,-1.5186 -0.16967,0.83496 -0.85692,2.5098 -1.322,2.6978 z"
     id="path72"
     inkscape:connector-curvature="0"
     style="fill:#131b28;fill-rule:nonzero" />
  <path
     d="m 414.83,75.223 c 0,0 2.2827,-11.282 2.2827,-11.282 -0.001,0.007 -0.002,0.0171 -0.004,0.022 0,0 -2.279,11.26 -2.279,11.26 z"
     id="path74"
     inkscape:connector-curvature="0"
     style="fill:#131b28;fill-rule:nonzero" />
  <path
     d="m 465.28,32.128 c 0,0 0.70434,2.9102 0.70434,2.9102 0.1941,0.83251 -0.34424,1.5088 -1.1951,1.5112"
     id="path76"
     inkscape:connector-curvature="0"
     style="fill:#131b28;fill-rule:nonzero" />
  <path
     d="m 412.55,86.486 c 0,0 2.2766,-11.262 2.2766,-11.262 0,0 -2.2766,11.262 -2.2766,11.262 z"
     id="path78"
     inkscape:connector-curvature="0"
     style="fill:#131b28;fill-rule:nonzero" />
  <path
     d="m 464.58,29.147 c 0,0 0.69703,2.981 0.69703,2.981 0,0 -0.69703,-2.981 -0.69703,-2.981 z"
     id="path80"
     inkscape:connector-curvature="0"
     style="fill:#131b28;fill-rule:nonzero" />
  <path
     d="m 417.11,63.942 c 0.16969,-0.83496 0.45045,-2.1875 0.62746,-3.0151 0,0 2.4377,-11.421 2.4377,-11.421 0,0 -2.7612,12.937 -2.7612,12.937 0,0 -0.30397,1.499 -0.30397,1.499 z"
     id="path82"
     inkscape:connector-curvature="0"
     style="fill:#131b28;fill-rule:nonzero" />
  <path
     d="m 406.24,27.135 c -0.16967,0.80567 -0.38696,1.8237 -0.53101,2.4976 0,0 -6.0681,28.43 -6.0681,28.43 0,0 6.3928,-29.946 6.3928,-29.946 0,0 0.2063,-0.98145 0.2063,-0.98145 z"
     id="path84"
     inkscape:connector-curvature="0"
     style="fill:#131b28;fill-rule:nonzero" />
  <path
     d="m 465.98,35.038 c 0,0 -0.70434,-2.9102 -0.70434,-2.9102 0,0 -0.69703,-2.981 -0.69703,-2.981 0,0 -0.35278,-1.5088 -0.35278,-1.5088 -1.3806,-5.3638 -5.4334,-8.4595 -14.233,-8.4595 0,0 -13.7,-0.0146 -13.7,-0.0146 0,0 -12.617,-0.0146 -12.617,-0.0146 h -1.0828 -13.114 c -0.85205,0 -1.6956,0.68115 -1.8713,1.5161 h -0.001 c 0,0 -0.62743,2.9663 -0.62743,2.9663 0,0 -0.74096,3.5034 -0.74096,3.5034 0,0 -0.2063,0.98145 -0.2063,0.98145 0,0 -6.3928,29.946 -6.3928,29.946 0,0 -6.0681,28.428 -6.0681,28.428 -0.18065,0.83496 -0.24169,1.8579 -0.13792,2.2754 0.1025,0.41747 1.7383,0.75927 2.5915,0.75927 h 12.808 c 0.85327,0 1.9324,-0.15381 2.3962,-0.3418 0.46508,-0.18799 1.1523,-1.8628 1.322,-2.6978 0,0 2.2766,-11.262 2.2766,-11.262 0,0 2.279,-11.26 2.279,-11.26 10e-4,-0.005 0.002,-0.0146 0.004,-0.022 0,0 0.30396,-1.499 0.30396,-1.499 0,0 2.7612,-12.937 2.7612,-12.937 0,0 2.439,-11.426 2.439,-11.426 0.18068,-0.83007 1.0205,-1.5088 1.8713,-1.5112 0,0 40.3,-0.0195 40.3,-0.0195 0.85083,-0.002 1.3892,-0.67872 1.1951,-1.5112 z"
     id="path86"
     inkscape:connector-curvature="0"
     style="fill:#131b28;fill-rule:nonzero" />
  <path
     d="m 517.86,8.7244 c -0.85326,0.006 -2.2485,0.0113 -3.1018,0.0113 h -12.899 c -0.85328,0 -1.9458,0.57618 -2.4268,1.2805 0,0 -28.523,41.787 -28.523,41.787 -0.48218,0.70557 -1.0315,0.60059 -1.2207,-0.22949 0,0 -2.0984,-9.2065 -2.0984,-9.2065 -0.18921,-0.83252 -1.0437,-1.5112 -1.8958,-1.5112 h -18.337 c -0.85327,0 -1.3586,0.66895 -1.1255,1.4893 0,0 8.2166,28.784 8.2166,28.784 0.23437,0.82032 0.25147,2.168 0.0403,2.9932 0,0 -3.5815,13.931 -3.5815,13.931 -0.2124,0.82764 0.3125,1.5039 1.1658,1.5039 h 18.123 c 0.85205,0 1.7236,-0.67627 1.9348,-1.5039 0,0 3.5828,-13.931 3.5828,-13.931 0.21119,-0.82519 0.80445,-2.0605 1.3184,-2.7417 0,0 46.306,-61.459 46.306,-61.459 0.51393,-0.68115 0.2356,-1.2354 -0.61645,-1.2292 0,0 -4.8608,0.0317 -4.8608,0.0317 z"
     id="path88"
     inkscape:connector-curvature="0"
     style="fill:#131b28;fill-rule:nonzero" />
  <path
     d="m 372.18,44.774 c 0,0 -0.001,-0.0171 -0.001,-0.0171 -0.10737,0.92528 -0.96069,1.604 -1.8128,1.604 h -23.248 c -0.80323,0 -1.2122,-0.54688 -1.0938,-1.2207 0.007,-0.0195 0.01,-0.0366 0.022,-0.0537 0,0 -0.008,0.002 -0.0146,0.007 0.005,-0.0269 0.005,-0.0512 0.0125,-0.0781 0,0 0.044,-0.16358 0.10625,-0.39552 2.2204,-5.9033 6.7432,-9.7778 15.243,-9.7778 9.5691,0 11.437,4.6753 10.787,9.9316 z M 365.3599,17.94 c -29.841,0 -36.912,18.113 -40.879,36.394 -3.9673,18.633 -3.6255,36.055 27.253,36.055 h 1.0962 c 0.0976,-0.002 0.19777,-0.002 0.29542,-0.002 h 0.86426 0.31737 0.81055 c 0.11963,-0.002 0.23927,-0.002 0.36133,-0.002 0.30762,0 0.6189,-0.002 0.93017,-0.002 h 0.21852 c 1.2219,-0.002 2.4622,-0.008 3.7048,-0.0125 h 0.0623 c 8.1555,-0.0317 16.334,-0.0927 19.647,-0.11962 0.84717,-0.0125 1.676,-0.6958 1.8506,-1.5234 0,0 1.25,-6.1108 1.25,-6.1108 0,0 0.24293,-1.189 0.24293,-1.189 0,0 1.4917,-7.2876 1.4917,-7.2876 0.1709,-0.83496 -0.38696,-1.5186 -1.2402,-1.5186 h -27.761 c -11.041,0 -14.32,-2.9346 -13.112,-11.56 h 44.377 c 0,0 -0.004,0.005 -0.004,0.005 0.0113,0 0.0208,-0.005 0.0305,-0.005 0.70556,-0.0125 1.3574,-0.49804 1.6162,-1.145 0.0489,-0.1245 0.0904,-0.25391 0.10737,-0.38818 0,0 -0.005,0.005 -0.005,0.005 6.5894,-24.854 4.6997,-41.592 -23.528,-41.592 z"
     id="path90"
     inkscape:connector-curvature="0"
     style="fill:#131b28;fill-rule:nonzero" />
  <path
     d="m 224.32,44.679 c 0,0 -0.41993,1.4868 -0.41993,1.4868 0,0.005 -0.001,0.005 -0.001,0.005 0,0 -3.3508,11.875 -3.3508,11.875 0,0 -3.3496,11.873 -3.3496,11.873 -0.23193,0.82031 -1.1182,1.4917 -1.9727,1.4917 h -17.736 c -13.453,0 -16.729,-10.522 -13.453,-26.042 3.2752,-15.874 9.6973,-25.742 22.938,-26.741 18.094,-1.3648 21.714,11.362 17.345,26.052 z m 12.163,25.818 c 0,0 8.3618,-20.303 10.261,-32.031 C 249.334,22.767 241.474,0 211.114,0 c -30.187,0 -43.295,21.737 -48.297,45.367 -5.0012,23.801 1.5515,44.675 31.567,44.504 0,0 23.679,-0.0879 23.679,-0.0879 0,0 22.131,-0.0806 22.131,-0.0806 0.85205,-0.007 1.7236,-0.6836 1.9409,-1.5064 0,0 3.855,-14.705 3.855,-14.705 0.21485,-0.8252 -0.30639,-1.5039 -1.1584,-1.5088 0,0 -3.6951,-0.022 -3.6951,-0.022 0,0 -3.6938,-0.022 -3.6938,-0.022 -0.7251,-0.005 -1.1401,-0.47364 -1.0522,-1.0962 0.0159,-0.11225 0.0415,-0.22705 0.0904,-0.34668 z"
     id="path92"
     inkscape:connector-curvature="0"
     style="fill:#131b28;fill-rule:nonzero" />
  <path
     d="m 385.92,56.908 c 0,0.56153 -0.45532,1.0181 -1.0181,1.0181 -0.56152,0 -1.0181,-0.45654 -1.0181,-1.0181 0,-0.56152 0.45655,-1.0156 1.0181,-1.0156 0.56274,0 1.0181,0.4541 1.0181,1.0156 z"
     id="path94"
     inkscape:connector-curvature="0"
     style="fill:#131b28;fill-rule:nonzero" />
  <path
     d="m 5.9784961,30.509 c -8.335,11.98 -7.2974,27.566 -0.93018,40.295 0.15138,0.30518 0.31006,0.60546 0.46631,0.90576 0.10012,0.19043 0.19409,0.38574 0.29785,0.57373 0.05862,0.11225 0.1245,0.22216 0.18555,0.32959 0.10862,0.20263 0.21972,0.39551 0.33202,0.59326 0.19776,0.34912 0.4004,0.6958 0.60791,1.0425 0.11475,0.19042 0.22828,0.38085 0.34669,0.57128 0.22949,0.37109 0.46509,0.7373 0.70556,1.1035 0.10012,0.15625 0.19775,0.3125 0.30029,0.46386 0.33204,0.49561 0.67139,0.98877 1.0217,1.4746 0.0087,0.0125 0.01825,0.0269 0.02925,0.039 0.055,0.0781 0.116,0.15381 0.17212,0.23194 0.30274,0.41747 0.6152399,0.83007 0.9313999,1.2378 0.116,0.14892 0.23315,0.29785 0.35034,0.44677 0.28199,0.35401 0.56885,0.70558 0.8606,1.0571 0.10862,0.13184 0.2185,0.26366 0.32836,0.39306 0.39185,0.46143 0.79101,0.92041 1.1987,1.3696 0.0075,0.007 0.01713,0.0171 0.02437,0.0244 0.01713,0.0195 0.03175,0.0317 0.04637,0.0512 0.39795,0.43457 0.80566,0.85937 1.2183,1.2842 0.12816,0.13184 0.25879,0.26368 0.39062,0.39308 0.31982,0.32226 0.64452,0.63965 0.9729,0.95458 0.13305,0.12695 0.26489,0.25635 0.39795,0.37842 0.43822,0.4126 0.88134,0.81787 1.333,1.2134 0.0075,0.007 0.01337,0.0125 0.02075,0.0171 0.07688,0.0684 0.15625,0.13184 0.23194,0.19775 0.39795,0.34424 0.80322,0.68604 1.2109,1.023 0.16601,0.13428 0.33448,0.26612 0.50171,0.40039 0.33325,0.26611 0.67016,0.52979 1.0095,0.78858 0.17945,0.13672 0.35889,0.27343 0.53956,0.41016 0.37475,0.27587 0.75195,0.54687 1.1328,0.81299 0.13915,0.10012 0.27344,0.19775 0.41259,0.29296 0.039,0.0269 0.0745,0.0537 0.1135,0.0806 0.36134,0.24902 0.7312,0.48827 1.0999,0.72754 0.15869,0.105 0.31616,0.21483 0.47608,0.31737 0.5664,0.35889 1.1414,0.7129 1.7224,1.0547 0.15746,0.0904 0.31738,0.17822 0.47606,0.26856 0.42725,0.24658 0.85694,0.48828 1.2927,0.7251 0.2356,0.12695 0.4773,0.24658 0.71534,0.36865 0.30761,0.16113 0.61279,0.3247 0.92529,0.48095 0.07075,0.0343 0.14405,0.0684 0.21362,0.1025 0.12574,0.061 0.25269,0.11963 0.37842,0.18311 0.48461,0.23194 0.9729,0.45899 1.4661,0.67872 0.105,0.0464 0.2063,0.0928 0.31006,0.13916 0.56518,0.24657 1.1352,0.48339 1.7102,0.71045 0.13794,0.0561 0.2771,0.10987 0.41626,0.16356 0.53222,0.20509 1.0718,0.40773 1.6138,0.59815 0.06838,0.0244 0.13429,0.0464 0.20264,0.0707 0.59449,0.20753 1.1951,0.40039 1.7993,0.58838 0.14404,0.0415 0.2893,0.0879 0.43456,0.1294 0.61524,0.18555 1.2232,0.40771 1.8579,0.5249 40.31,7.3511 52.019,-24.224 52.019,-24.224 -9.834,12.812 -27.29,16.191 -43.829,12.429 -0.62622,-0.1416 -1.2341,-0.33691 -1.8457,-0.51758 -0.15504,-0.0464 -0.30762,-0.0927 -0.46021,-0.13916 -0.59692,-0.1831 -1.189,-0.37597 -1.7773,-0.57861 -0.08062,-0.0292 -0.16236,-0.0586 -0.24415,-0.0879 -0.52734,-0.18555 -1.0486,-0.38086 -1.5674,-0.58105 -0.14649,-0.0586 -0.29298,-0.11475 -0.43945,-0.17334 -0.56885,-0.22461 -1.134,-0.45899 -1.6919,-0.70312 -0.11475,-0.0489 -0.22461,-0.10013 -0.33814,-0.14894 -0.47974,-0.21728 -0.95459,-0.437 -1.427,-0.66406 -0.13671,-0.0659 -0.27344,-0.12939 -0.4126,-0.19775 -0.371,-0.181 -0.738,-0.374 -1.104,-0.562 -0.245,-0.129 -0.494,-0.251 -0.737,-0.386 -0.447,-0.239 -0.886,-0.488 -1.323,-0.742 -0.148,-0.083 -0.298,-0.163 -0.447,-0.249 -0.581,-0.342 -1.155,-0.696 -1.723,-1.055 -0.157,-0.1 -0.31,-0.207 -0.465,-0.31 -0.412,-0.266 -0.822,-0.537 -1.226,-0.815 -0.134,-0.091 -0.263,-0.188 -0.395,-0.278 -0.39,-0.276 -0.776,-0.555 -1.159,-0.838 -0.174,-0.129 -0.345,-0.259 -0.514,-0.388 -0.351,-0.269 -0.7,-0.54 -1.046,-0.818 -0.15625,-0.1245 -0.3125,-0.24902 -0.46631,-0.37354 -0.43945,-0.36132 -0.87402,-0.7251 -1.3025,-1.0986 -0.04512,-0.039 -0.094,-0.0781 -0.14282,-0.11963 -0.46386,-0.40771 -0.91919,-0.8252 -1.3696,-1.2451 -0.13062,-0.1245 -0.25758,-0.24659 -0.38575,-0.3711 -0.33325,-0.31738 -0.66161,-0.6372 -0.98389,-0.96435 -0.12939,-0.1294 -0.25879,-0.25635 -0.38574,-0.38575 -0.41015,-0.41991 -0.81299,-0.84473 -1.2073,-1.2768 -0.0195,-0.022 -0.04025,-0.0415 -0.05975,-0.0635 -0.41749,-0.45655 -0.8252,-0.92285 -1.2244,-1.394 -0.10862,-0.12939 -0.21362,-0.2539 -0.32105,-0.38085 -0.29785,-0.35889 -0.59326,-0.72266 -0.88135,-1.0889 -0.108,-0.132 -0.216,-0.267 -0.323,-0.403 -0.347,-0.45 -0.686,-0.899 -1.018,-1.355 -9.1822999,-12.525 -12.4809999,-29.8 -5.142,-43.987"
     id="path96"
     inkscape:connector-curvature="0"
     style="fill:#0868ac;fill-rule:nonzero" />
  <path
     d="m 31.851996,20.416 c -6.0278,8.6743 -5.7007,20.286 -0.99854,29.46 0.78858,1.5381 1.6748,3.0298 2.666,4.4507 0.90331,1.2939 1.9043,2.8345 3.103,3.8745 0.43458,0.47852 0.88868,0.94482 1.3525,1.4038 0.11712,0.11963 0.23681,0.23438 0.35645,0.35157 0.45044,0.43701 0.9082,0.8667 1.3818,1.2842 0.0195,0.0146 0.03663,0.0341 0.05613,0.0489 0.005,0.005 0.01,0.007 0.01337,0.0125 0.52368,0.45899 1.0644,0.90089 1.6138,1.3354 0.12212,0.0927 0.24292,0.19044 0.36621,0.28565 0.55054,0.42237 1.1121,0.8374 1.6882,1.2329 0.01713,0.0125 0.03175,0.0244 0.04888,0.0366 0.25391,0.17578 0.5127,0.33936 0.77026,0.50781 0.12325,0.0806 0.24049,0.16602 0.365,0.2417 0.41138,0.26367 0.82762,0.52002 1.2512,0.7666 0.05987,0.0366 0.11838,0.0684 0.177,0.1025 0.365,0.20995 0.73486,0.41747 1.106,0.61767 0.12939,0.0732 0.26122,0.13672 0.39306,0.20508 0.25635,0.13427 0.5127,0.271 0.77392,0.40039 0.039,0.0195 0.07937,0.0366 0.11712,0.0538 0.53101,0.26122 1.0669,0.5127 1.6138,0.75195 0.11712,0.0513 0.23804,0.0976 0.35644,0.14648 0.43701,0.18555 0.87891,0.36622 1.3232,0.53712 0.18799,0.0708 0.37841,0.13916 0.5664,0.20751 0.40284,0.14892 0.80689,0.28565 1.2146,0.42236 0.18432,0.0586 0.365,0.11963 0.54932,0.17579 0.57982,0.18066 1.1523,0.40771 1.7566,0.50781 31.123,5.1562 38.308,-18.806 38.308,-18.806 -6.477,9.3286 -19.02,13.779 -32.405,10.305 -0.59449,-0.15625 -1.1804,-0.32715 -1.7627,-0.51027 -0.17822,-0.0537 -0.35279,-0.11225 -0.52979,-0.17088 -0.41381,-0.13429 -0.82519,-0.27589 -1.2329,-0.42482 -0.18676,-0.0684 -0.37352,-0.13671 -0.55664,-0.20751 -0.44678,-0.1709 -0.88868,-0.34912 -1.3269,-0.53467 -0.11962,-0.0513 -0.24049,-0.0976 -0.35768,-0.15137 -0.54931,-0.23926 -1.0901,-0.49072 -1.6235,-0.7544 -0.27466,-0.13427 -0.54444,-0.27587 -0.81421,-0.41503 -0.15625,-0.0805 -0.31372,-0.16113 -0.46998,-0.2417 -0.34668,-0.18799 -0.69091,-0.3833 -1.0303,-0.58105 -0.0805,-0.0464 -0.16479,-0.0904 -0.24658,-0.13917 -0.42115,-0.24658 -0.83619,-0.50048 -1.2476,-0.76171 -0.12695,-0.0806 -0.24902,-0.16846 -0.37598,-0.25147 -0.271,-0.17578 -0.54199,-0.354 -0.8081,-0.53467 -0.57374,-0.39551 -1.1316,-0.81055 -1.6821,-1.2305 -0.12695,-0.10013 -0.2539,-0.19775 -0.37841,-0.29785 -5.859,-4.626 -10.503,-10.947 -12.711,-18.115 -2.314,-7.434 -1.815,-15.779 2.194,-22.551"
     id="path98"
     inkscape:connector-curvature="0"
     style="fill:#0868ac;fill-rule:nonzero" />
  <path
     d="m 53.612996,12.875 c -3.5535,5.2295 -3.9026,11.724 -1.4368,17.5 2.6001,6.1304 7.9285,10.94 14.147,13.22 0.25635,0.0953 0.5127,0.18066 0.77271,0.26855 0.1135,0.0342 0.22582,0.0733 0.34058,0.10737 0.36621,0.11475 0.72998,0.24903 1.1084,0.31983 17.185,3.3203 21.846,-8.8184 23.087,-10.605 -4.0832,5.8789 -10.945,7.29 -19.364,5.2466 -0.665,-0.162 -1.396,-0.402 -2.037,-0.629 -0.822,-0.293 -1.632,-0.627 -2.419,-1.005 -1.495,-0.718 -2.92,-1.59 -4.241,-2.588 -7.534,-5.716 -12.214,-16.621 -7.298,-25.502"
     id="path100"
     inkscape:connector-curvature="0"
     style="fill:#0868ac;fill-rule:nonzero" />
</svg>
