<svg version="1.1" xmlns="http://www.w3.org/2000/svg" xmlns:xlink="http://www.w3.org/1999/xlink" width="991" height="667"><defs></defs><g><g transform="translate(-86,-78) scale(1,1)"><rect fill="#C0C0C0" stroke="none" x="851" y="299" width="200" height="132" opacity="0.2"></rect></g><g transform="translate(-86,-78) scale(1,1)"><rect fill="#ffffff" stroke="none" x="844" y="292" width="200" height="132"></rect></g><g transform="translate(-86,-78) scale(1,1)"><path fill="none" stroke="#000000" d="M 844 292 L 1044 292 L 1044 424 L 844 424 L 844 292 Z Z" stroke-miterlimit="10"></path></g><g transform="translate(-86,-78) scale(1,1)"><path fill="none" stroke="#000000" d="M 844 317 L 1044 317" stroke-miterlimit="10"></path></g><g transform="translate(-86,-78) scale(1,1)"><path fill="none" stroke="#000000" d="M 844 415 L 1044 415" stroke-miterlimit="10"></path></g><g transform="translate(-86,-78) scale(1,1)"><g><path fill="none" stroke="none"></path><text fill="#000000" stroke="none" font-family="Arial" font-size="13px" font-style="normal" font-weight="bold" text-decoration="none" x="909" y="311.5">Observation</text></g></g><g transform="translate(-86,-78) scale(1,1)"><g><path fill="none" stroke="none"></path><text fill="#000000" stroke="none" font-family="Arial" font-size="13px" font-style="normal" font-weight="normal" text-decoration="none" x="849" y="334.5">+phenomenonTime: TM_Object</text></g></g><g transform="translate(-86,-78) scale(1,1)"><g><path fill="none" stroke="none"></path><text fill="#000000" stroke="none" font-family="Arial" font-size="13px" font-style="normal" font-weight="normal" text-decoration="none" x="849" y="349.5">+resultTime: TM_Instant</text></g></g><g transform="translate(-86,-78) scale(1,1)"><g><path fill="none" stroke="none"></path><text fill="#000000" stroke="none" font-family="Arial" font-size="13px" font-style="normal" font-weight="normal" text-decoration="none" x="849" y="364.5">+result: Any</text></g></g><g transform="translate(-86,-78) scale(1,1)"><g><path fill="none" stroke="none"></path><text fill="#000000" stroke="none" font-family="Arial" font-size="13px" font-style="normal" font-weight="normal" text-decoration="none" x="849" y="379.5">+resultQuality: DQ_Element[0..*]</text></g></g><g transform="translate(-86,-78) scale(1,1)"><g><path fill="none" stroke="none"></path><text fill="#000000" stroke="none" font-family="Arial" font-size="13px" font-style="normal" font-weight="normal" text-decoration="none" x="849" y="394.5">+validTime: TM_Period[0..1]</text></g></g><g transform="translate(-86,-78) scale(1,1)"><g><path fill="none" stroke="none"></path><text fill="#000000" stroke="none" font-family="Arial" font-size="13px" font-style="normal" font-weight="normal" text-decoration="none" x="849" y="409.5">+parameters: NamedValue[0..*]</text></g></g><g transform="translate(-86,-78) scale(1,1)"><rect fill="#C0C0C0" stroke="none" x="119" y="495" width="222" height="72" opacity="0.2"></rect></g><g transform="translate(-86,-78) scale(1,1)"><rect fill="#ffffff" stroke="none" x="112" y="488" width="222" height="72"></rect></g><g transform="translate(-86,-78) scale(1,1)"><path fill="none" stroke="#000000" d="M 112 488 L 334 488 L 334 560 L 112 560 L 112 488 Z Z" stroke-miterlimit="10"></path></g><g transform="translate(-86,-78) scale(1,1)"><path fill="none" stroke="#000000" d="M 112 513 L 334 513" stroke-miterlimit="10"></path></g><g transform="translate(-86,-78) scale(1,1)"><path fill="none" stroke="#000000" d="M 112 551 L 334 551" stroke-miterlimit="10"></path></g><g transform="translate(-86,-78) scale(1,1)"><g><path fill="none" stroke="none"></path><text fill="#000000" stroke="none" font-family="Arial" font-size="13px" font-style="normal" font-weight="bold" text-decoration="none" x="207" y="507.5">Thing</text></g></g><g transform="translate(-86,-78) scale(1,1)"><g><path fill="none" stroke="none"></path><text fill="#000000" stroke="none" font-family="Arial" font-size="13px" font-style="normal" font-weight="normal" text-decoration="none" x="117" y="530.5">+description: CharacterString</text></g></g><g transform="translate(-86,-78) scale(1,1)"><g><path fill="none" stroke="none"></path><text fill="#000000" stroke="none" font-family="Arial" font-size="13px" font-style="normal" font-weight="normal" text-decoration="none" x="117" y="545.5">+properties: JSON_Object[0..1]</text></g></g><g transform="translate(-86,-78) scale(1,1)"><rect fill="#C0C0C0" stroke="none" x="399" y="303" width="257" height="132" opacity="0.2"></rect></g><g transform="translate(-86,-78) scale(1,1)"><rect fill="#ffffff" stroke="none" x="392" y="296" width="257" height="132"></rect></g><g transform="translate(-86,-78) scale(1,1)"><path fill="none" stroke="#000000" d="M 392 296 L 649 296 L 649 428 L 392 428 L 392 296 Z Z" stroke-miterlimit="10"></path></g><g transform="translate(-86,-78) scale(1,1)"><path fill="none" stroke="#000000" d="M 392 321 L 649 321" stroke-miterlimit="10"></path></g><g transform="translate(-86,-78) scale(1,1)"><path fill="none" stroke="#000000" d="M 392 419 L 649 419" stroke-miterlimit="10"></path></g><g transform="translate(-86,-78) scale(1,1)"><g><path fill="none" stroke="none"></path><text fill="#000000" stroke="none" font-family="Arial" font-size="13px" font-style="normal" font-weight="bold" text-decoration="none" x="487" y="315.5">Datastream</text></g></g><g transform="translate(-86,-78) scale(1,1)"><g><path fill="none" stroke="none"></path><text fill="#000000" stroke="none" font-family="Arial" font-size="13px" font-style="normal" font-weight="normal" text-decoration="none" x="397" y="338.5">+description: CharacterString</text></g></g><g transform="translate(-86,-78) scale(1,1)"><g><path fill="none" stroke="none"></path><text fill="#000000" stroke="none" font-family="Arial" font-size="13px" font-style="normal" font-weight="normal" text-decoration="none" x="397" y="353.5">+observationType: ValueCode</text></g></g><g transform="translate(-86,-78) scale(1,1)"><g><path fill="none" stroke="none"></path><text fill="#000000" stroke="none" font-family="Arial" font-size="13px" font-style="normal" font-weight="normal" text-decoration="none" x="397" y="368.5">+unitOfMeasurement: JSON_Object</text></g></g><g transform="translate(-86,-78) scale(1,1)"><g><path fill="none" stroke="none"></path><text fill="#000000" stroke="none" font-family="Arial" font-size="13px" font-style="normal" font-weight="normal" text-decoration="none" x="397" y="383.5">+observedArea: GM_Envelope[0..1]</text></g></g><g transform="translate(-86,-78) scale(1,1)"><g><path fill="none" stroke="none"></path><text fill="#000000" stroke="none" font-family="Arial" font-size="13px" font-style="normal" font-weight="normal" text-decoration="none" x="397" y="398.5">+phenomenonTime: TM_Period[0..1]</text></g></g><g transform="translate(-86,-78) scale(1,1)"><g><path fill="none" stroke="none"></path><text fill="#000000" stroke="none" font-family="Arial" font-size="13px" font-style="normal" font-weight="normal" text-decoration="none" x="397" y="413.5">+resultTime: TM_Period[0..1]</text></g></g><g transform="translate(-86,-78) scale(1,1)"><path fill="none" stroke="#000000" d="M 392 392 L 262 392 L 262 488" stroke-miterlimit="10"></path></g><g transform="translate(-86,-78) scale(1,1)"><g><path fill="none" stroke="none"></path><text fill="#000000" stroke="none" font-family="Arial" font-size="13px" font-style="normal" font-weight="normal" text-decoration="none" x="303" y="413">+datastreams</text></g></g><g transform="translate(-86,-78) scale(1,1)"><g><path fill="none" stroke="none"></path><text fill="#000000" stroke="none" font-family="Arial" font-size="13px" font-style="normal" font-weight="normal" text-decoration="none" x="360" y="386">0..*</text></g></g><g transform="translate(-86,-78) scale(1,1)"><g><path fill="none" stroke="none"></path><text fill="#000000" stroke="none" font-family="Arial" font-size="13px" font-style="normal" font-weight="normal" text-decoration="none" x="267" y="481">+thing</text></g></g><g transform="translate(-86,-78) scale(1,1)"><g><path fill="none" stroke="none"></path><text fill="#000000" stroke="none" font-family="Arial" font-size="13px" font-style="normal" font-weight="normal" text-decoration="none" x="246" y="473">1</text></g></g><g transform="translate(-86,-78) scale(1,1)"><rect fill="#C0C0C0" stroke="none" x="467" y="95" width="178" height="87" opacity="0.2"></rect></g><g transform="translate(-86,-78) scale(1,1)"><rect fill="#ffffff" stroke="none" x="460" y="88" width="178" height="87"></rect></g><g transform="translate(-86,-78) scale(1,1)"><path fill="none" stroke="#000000" d="M 460 88 L 638 88 L 638 175 L 460 175 L 460 88 Z Z" stroke-miterlimit="10"></path></g><g transform="translate(-86,-78) scale(1,1)"><path fill="none" stroke="#000000" d="M 460 113 L 638 113" stroke-miterlimit="10"></path></g><g transform="translate(-86,-78) scale(1,1)"><path fill="none" stroke="#000000" d="M 460 166 L 638 166" stroke-miterlimit="10"></path></g><g transform="translate(-86,-78) scale(1,1)"><g><path fill="none" stroke="none"></path><text fill="#000000" stroke="none" font-family="Arial" font-size="13px" font-style="normal" font-weight="bold" text-decoration="none" x="496.5" y="107.5">ObservedProperty</text></g></g><g transform="translate(-86,-78) scale(1,1)"><g><path fill="none" stroke="none"></path><text fill="#000000" stroke="none" font-family="Arial" font-size="13px" font-style="normal" font-weight="normal" text-decoration="none" x="465" y="130.5">+name: CharacterString</text></g></g><g transform="translate(-86,-78) scale(1,1)"><g><path fill="none" stroke="none"></path><text fill="#000000" stroke="none" font-family="Arial" font-size="13px" font-style="normal" font-weight="normal" text-decoration="none" x="465" y="145.5">+definition: URI</text></g></g><g transform="translate(-86,-78) scale(1,1)"><g><path fill="none" stroke="none"></path><text fill="#000000" stroke="none" font-family="Arial" font-size="13px" font-style="normal" font-weight="normal" text-decoration="none" x="465" y="160.5">+description: CharacterString</text></g></g><g transform="translate(-86,-78) scale(1,1)"><path fill="none" stroke="#000000" d="M 554 175 L 554 296" stroke-miterlimit="10"></path></g><g transform="translate(-86,-78) scale(1,1)"><g><path fill="none" stroke="none"></path><text fill="#000000" stroke="none" font-family="Arial" font-size="13px" font-style="normal" font-weight="normal" text-decoration="none" x="558" y="197">+observedProperty</text></g></g><g transform="translate(-86,-78) scale(1,1)"><g><path fill="none" stroke="none"></path><text fill="#000000" stroke="none" font-family="Arial" font-size="13px" font-style="normal" font-weight="normal" text-decoration="none" x="538" y="193">1</text></g></g><g transform="translate(-86,-78) scale(1,1)"><g><path fill="none" stroke="none"></path><text fill="#000000" stroke="none" font-family="Arial" font-size="13px" font-style="normal" font-weight="normal" text-decoration="none" x="558" y="288">+datastreams</text></g></g><g transform="translate(-86,-78) scale(1,1)"><g><path fill="none" stroke="none"></path><text fill="#000000" stroke="none" font-family="Arial" font-size="13px" font-style="normal" font-weight="normal" text-decoration="none" x="527" y="288">0..*</text></g></g><g transform="translate(-86,-78) scale(1,1)"><rect fill="#C0C0C0" stroke="none" x="211" y="119" width="178" height="87" opacity="0.2"></rect></g><g transform="translate(-86,-78) scale(1,1)"><rect fill="#ffffff" stroke="none" x="204" y="112" width="178" height="87"></rect></g><g transform="translate(-86,-78) scale(1,1)"><path fill="none" stroke="#000000" d="M 204 112 L 382 112 L 382 199 L 204 199 L 204 112 Z Z" stroke-miterlimit="10"></path></g><g transform="translate(-86,-78) scale(1,1)"><path fill="none" stroke="#000000" d="M 204 137 L 382 137" stroke-miterlimit="10"></path></g><g transform="translate(-86,-78) scale(1,1)"><path fill="none" stroke="#000000" d="M 204 190 L 382 190" stroke-miterlimit="10"></path></g><g transform="translate(-86,-78) scale(1,1)"><g><path fill="none" stroke="none"></path><text fill="#000000" stroke="none" font-family="Arial" font-size="13px" font-style="normal" font-weight="bold" text-decoration="none" x="272.5" y="131.5">Sensor</text></g></g><g transform="translate(-86,-78) scale(1,1)"><g><path fill="none" stroke="none"></path><text fill="#000000" stroke="none" font-family="Arial" font-size="13px" font-style="normal" font-weight="normal" text-decoration="none" x="209" y="154.5">+description: CharacterString</text></g></g><g transform="translate(-86,-78) scale(1,1)"><g><path fill="none" stroke="none"></path><text fill="#000000" stroke="none" font-family="Arial" font-size="13px" font-style="normal" font-weight="normal" text-decoration="none" x="209" y="169.5">+encodingType: ValueCode</text></g></g><g transform="translate(-86,-78) scale(1,1)"><g><path fill="none" stroke="none"></path><text fill="#000000" stroke="none" font-family="Arial" font-size="13px" font-style="normal" font-weight="normal" text-decoration="none" x="209" y="184.5">+metadata: Any</text></g></g><g transform="translate(-86,-78) scale(1,1)"><path fill="none" stroke="#000000" d="M 280 199 L 280 332 L 392 332" stroke-miterlimit="10"></path></g><g transform="translate(-86,-78) scale(1,1)"><g><path fill="none" stroke="none"></path><text fill="#000000" stroke="none" font-family="Arial" font-size="13px" font-style="normal" font-weight="normal" text-decoration="none" x="286" y="220">+sensor</text></g></g><g transform="translate(-86,-78) scale(1,1)"><g><path fill="none" stroke="none"></path><text fill="#000000" stroke="none" font-family="Arial" font-size="13px" font-style="normal" font-weight="normal" text-decoration="none" x="264" y="227">1</text></g></g><g transform="translate(-86,-78) scale(1,1)"><g><path fill="none" stroke="none"></path><text fill="#000000" stroke="none" font-family="Arial" font-size="13px" font-style="normal" font-weight="normal" text-decoration="none" x="307" y="323">+datastreams</text></g></g><g transform="translate(-86,-78) scale(1,1)"><g><path fill="none" stroke="none"></path><text fill="#000000" stroke="none" font-family="Arial" font-size="13px" font-style="normal" font-weight="normal" text-decoration="none" x="360" y="351">0..*</text></g></g><g transform="translate(-86,-78) scale(1,1)"><path fill="none" stroke="#000000" d="M 649 364 L 844 364" stroke-miterlimit="10"></path></g><g transform="translate(-86,-78) scale(1,1)"><g><path fill="none" stroke="none"></path><text fill="#000000" stroke="none" font-family="Arial" font-size="13px" font-style="normal" font-weight="normal" text-decoration="none" x="652" y="356">+datastream</text></g></g><g transform="translate(-86,-78) scale(1,1)"><g><path fill="none" stroke="none"></path><text fill="#000000" stroke="none" font-family="Arial" font-size="13px" font-style="normal" font-weight="normal" text-decoration="none" x="667" y="383">1</text></g></g><g transform="translate(-86,-78) scale(1,1)"><g><path fill="none" stroke="none"></path><text fill="#000000" stroke="none" font-family="Arial" font-size="13px" font-style="normal" font-weight="normal" text-decoration="none" x="759" y="354">+observations</text></g></g><g transform="translate(-86,-78) scale(1,1)"><g><path fill="none" stroke="none"></path><text fill="#000000" stroke="none" font-family="Arial" font-size="13px" font-style="normal" font-weight="normal" text-decoration="none" x="812" y="383">0..*</text></g></g><g transform="translate(-86,-78) scale(1,1)"><rect fill="#C0C0C0" stroke="none" x="879" y="559" width="178" height="87" opacity="0.2"></rect></g><g transform="translate(-86,-78) scale(1,1)"><rect fill="#ffffff" stroke="none" x="872" y="552" width="178" height="87"></rect></g><g transform="translate(-86,-78) scale(1,1)"><path fill="none" stroke="#000000" d="M 872 552 L 1050 552 L 1050 639 L 872 639 L 872 552 Z Z" stroke-miterlimit="10"></path></g><g transform="translate(-86,-78) scale(1,1)"><path fill="none" stroke="#000000" d="M 872 577 L 1050 577" stroke-miterlimit="10"></path></g><g transform="translate(-86,-78) scale(1,1)"><path fill="none" stroke="#000000" d="M 872 630 L 1050 630" stroke-miterlimit="10"></path></g><g transform="translate(-86,-78) scale(1,1)"><g><path fill="none" stroke="none"></path><text fill="#000000" stroke="none" font-family="Arial" font-size="13px" font-style="normal" font-weight="bold" text-decoration="none" x="910" y="571.5">FeatureOfInterest</text></g></g><g transform="translate(-86,-78) scale(1,1)"><g><path fill="none" stroke="none"></path><text fill="#000000" stroke="none" font-family="Arial" font-size="13px" font-style="normal" font-weight="normal" text-decoration="none" x="877" y="594.5">+description: CharacterString</text></g></g><g transform="translate(-86,-78) scale(1,1)"><g><path fill="none" stroke="none"></path><text fill="#000000" stroke="none" font-family="Arial" font-size="13px" font-style="normal" font-weight="normal" text-decoration="none" x="877" y="609.5">+encodingType: ValueCode</text></g></g><g transform="translate(-86,-78) scale(1,1)"><g><path fill="none" stroke="none"></path><text fill="#000000" stroke="none" font-family="Arial" font-size="13px" font-style="normal" font-weight="normal" text-decoration="none" x="877" y="624.5">+feature: Any</text></g></g><g transform="translate(-86,-78) scale(1,1)"><path fill="none" stroke="#000000" d="M 956 424 L 956 552" stroke-miterlimit="10"></path></g><g transform="translate(-86,-78) scale(1,1)"><g><path fill="none" stroke="none"></path><text fill="#000000" stroke="none" font-family="Arial" font-size="13px" font-style="normal" font-weight="normal" text-decoration="none" x="962" y="443">+observations</text></g></g><g transform="translate(-86,-78) scale(1,1)"><g><path fill="none" stroke="none"></path><text fill="#000000" stroke="none" font-family="Arial" font-size="13px" font-style="normal" font-weight="normal" text-decoration="none" x="933" y="452">0..*</text></g></g><g transform="translate(-86,-78) scale(1,1)"><g><path fill="none" stroke="none"></path><text fill="#000000" stroke="none" font-family="Arial" font-size="13px" font-style="normal" font-weight="normal" text-decoration="none" x="962" y="540">+featureOfInterest</text></g></g><g transform="translate(-86,-78) scale(1,1)"><g><path fill="none" stroke="none"></path><text fill="#000000" stroke="none" font-family="Arial" font-size="13px" font-style="normal" font-weight="normal" text-decoration="none" x="940" y="537">1</text></g></g><g transform="translate(-86,-78) scale(1,1)"><rect fill="#C0C0C0" stroke="none" x="423" y="599" width="122" height="57" opacity="0.2"></rect></g><g transform="translate(-86,-78) scale(1,1)"><rect fill="#ffffff" stroke="none" x="416" y="592" width="122" height="57"></rect></g><g transform="translate(-86,-78) scale(1,1)"><path fill="none" stroke="#000000" d="M 416 592 L 538 592 L 538 649 L 416 649 L 416 592 Z Z" stroke-miterlimit="10"></path></g><g transform="translate(-86,-78) scale(1,1)"><path fill="none" stroke="#000000" d="M 416 617 L 538 617" stroke-miterlimit="10"></path></g><g transform="translate(-86,-78) scale(1,1)"><path fill="none" stroke="#000000" d="M 416 640 L 538 640" stroke-miterlimit="10"></path></g><g transform="translate(-86,-78) scale(1,1)"><g><path fill="none" stroke="none"></path><text fill="#000000" stroke="none" font-family="Arial" font-size="13px" font-style="normal" font-weight="bold" text-decoration="none" x="425.5" y="611.5">HistoricalLocation</text></g></g><g transform="translate(-86,-78) scale(1,1)"><g><path fill="none" stroke="none"></path><text fill="#000000" stroke="none" font-family="Arial" font-size="13px" font-style="normal" font-weight="normal" text-decoration="none" x="421" y="634.5">+time: TM_Instant</text></g></g><g transform="translate(-86,-78) scale(1,1)"><rect fill="#C0C0C0" stroke="none" x="103" y="655" width="178" height="87" opacity="0.2"></rect></g><g transform="translate(-86,-78) scale(1,1)"><rect fill="#ffffff" stroke="none" x="96" y="648" width="178" height="87"></rect></g><g transform="translate(-86,-78) scale(1,1)"><path fill="none" stroke="#000000" d="M 96 648 L 274 648 L 274 735 L 96 735 L 96 648 Z Z" stroke-miterlimit="10"></path></g><g transform="translate(-86,-78) scale(1,1)"><path fill="none" stroke="#000000" d="M 96 673 L 274 673" stroke-miterlimit="10"></path></g><g transform="translate(-86,-78) scale(1,1)"><path fill="none" stroke="#000000" d="M 96 726 L 274 726" stroke-miterlimit="10"></path></g><g transform="translate(-86,-78) scale(1,1)"><g><path fill="none" stroke="none"></path><text fill="#000000" stroke="none" font-family="Arial" font-size="13px" font-style="normal" font-weight="bold" text-decoration="none" x="160.5" y="667.5">Location</text></g></g><g transform="translate(-86,-78) scale(1,1)"><g><path fill="none" stroke="none"></path><text fill="#000000" stroke="none" font-family="Arial" font-size="13px" font-style="normal" font-weight="normal" text-decoration="none" x="101" y="690.5">+description: CharacterString</text></g></g><g transform="translate(-86,-78) scale(1,1)"><g><path fill="none" stroke="none"></path><text fill="#000000" stroke="none" font-family="Arial" font-size="13px" font-style="normal" font-weight="normal" text-decoration="none" x="101" y="705.5">+encodingType: ValueCode</text></g></g><g transform="translate(-86,-78) scale(1,1)"><g><path fill="none" stroke="none"></path><text fill="#000000" stroke="none" font-family="Arial" font-size="13px" font-style="normal" font-weight="normal" text-decoration="none" x="101" y="720.5">+location: Any</text></g></g><g transform="translate(-86,-78) scale(1,1)"><path fill="none" stroke="#000000" d="M 334 528 L 468 528 L 468 592" stroke-miterlimit="10"></path></g><g transform="translate(-86,-78) scale(1,1)"><g><path fill="none" stroke="none"></path><text fill="#000000" stroke="none" font-family="Arial" font-size="13px" font-style="normal" font-weight="normal" text-decoration="none" x="340" y="521">+things</text></g></g><g transform="translate(-86,-78) scale(1,1)"><g><path fill="none" stroke="none"></path><text fill="#000000" stroke="none" font-family="Arial" font-size="13px" font-style="normal" font-weight="normal" text-decoration="none" x="352" y="547">1</text></g></g><g transform="translate(-86,-78) scale(1,1)"><g><path fill="none" stroke="none"></path><text fill="#000000" stroke="none" font-family="Arial" font-size="13px" font-style="normal" font-weight="normal" text-decoration="none" x="502" y="584">+historicalLocations</text></g></g><g transform="translate(-86,-78) scale(1,1)"><g><path fill="none" stroke="none"></path><text fill="#000000" stroke="none" font-family="Arial" font-size="13px" font-style="normal" font-weight="normal" text-decoration="none" x="475" y="585">0..*</text></g></g><g transform="translate(-86,-78) scale(1,1)"><path fill="none" stroke="#000000" d="M 274 700 L 472 700 L 472 649" stroke-miterlimit="10"></path></g><g transform="translate(-86,-78) scale(1,1)"><g><path fill="none" stroke="none"></path><text fill="#000000" stroke="none" font-family="Arial" font-size="13px" font-style="normal" font-weight="normal" text-decoration="none" x="288" y="692">+location</text></g></g><g transform="translate(-86,-78) scale(1,1)"><g><path fill="none" stroke="none"></path><text fill="#000000" stroke="none" font-family="Arial" font-size="13px" font-style="normal" font-weight="normal" text-decoration="none" x="285" y="719">1..*</text></g></g><g transform="translate(-86,-78) scale(1,1)"><g><path fill="none" stroke="none"></path><text fill="#000000" stroke="none" font-family="Arial" font-size="13px" font-style="normal" font-weight="normal" text-decoration="none" x="506" y="673">+historicalLocations</text></g></g><g transform="translate(-86,-78) scale(1,1)"><g><path fill="none" stroke="none"></path><text fill="#000000" stroke="none" font-family="Arial" font-size="13px" font-style="normal" font-weight="normal" text-decoration="none" x="482" y="669">0..*</text></g></g><g transform="translate(-86,-78) scale(1,1)"><path fill="none" stroke="#000000" d="M 200 560 L 200 648" stroke-miterlimit="10"></path></g><g transform="translate(-86,-78) scale(1,1)"><g><path fill="none" stroke="none"></path><text fill="#000000" stroke="none" font-family="Arial" font-size="13px" font-style="normal" font-weight="normal" text-decoration="none" x="219" y="581">+things</text></g></g><g transform="translate(-86,-78) scale(1,1)"><g><path fill="none" stroke="none"></path><text fill="#000000" stroke="none" font-family="Arial" font-size="13px" font-style="normal" font-weight="normal" text-decoration="none" x="171" y="577">0..*</text></g></g><g transform="translate(-86,-78) scale(1,1)"><g><path fill="none" stroke="none"></path><text fill="#000000" stroke="none" font-family="Arial" font-size="13px" font-style="normal" font-weight="normal" text-decoration="none" x="203" y="641">+locations</text></g></g><g transform="translate(-86,-78) scale(1,1)"><g><path fill="none" stroke="none"></path><text fill="#000000" stroke="none" font-family="Arial" font-size="13px" font-style="normal" font-weight="normal" text-decoration="none" x="167" y="636">0..*</text></g></g><g transform="translate(-86,-78) scale(1,1)"><rect fill="#C0C0C0" stroke="none" x="691" y="555" width="96" height="57" opacity="0.2"></rect></g><g transform="translate(-86,-78) scale(1,1)"><rect fill="#ffffff" stroke="none" x="684" y="548" width="96" height="57"></rect></g><g transform="translate(-86,-78) scale(1,1)"><path fill="none" stroke="#000000" d="M 684 548 L 780 548 L 780 605 L 684 605 L 684 548 Z Z" stroke-miterlimit="10"></path></g><g transform="translate(-86,-78) scale(1,1)"><path fill="none" stroke="#000000" d="M 684 586 L 780 586" stroke-miterlimit="10"></path></g><g transform="translate(-86,-78) scale(1,1)"><path fill="none" stroke="#000000" d="M 684 596 L 780 596" stroke-miterlimit="10"></path></g><g transform="translate(-86,-78) scale(1,1)"><g><path fill="none" stroke="none"></path><text fill="#000000" stroke="none" font-family="Arial" font-size="13px" font-style="normal" font-weight="normal" text-decoration="none" x="699.5" y="565.5">«CodeList»</text></g></g><g transform="translate(-86,-78) scale(1,1)"><g><path fill="none" stroke="none"></path><text fill="#000000" stroke="none" font-family="Arial" font-size="13px" font-style="normal" font-weight="bold" text-decoration="none" x="700.5" y="580.5">ValueCode</text></g></g></g></svg>